<?xml version="1.0" encoding="UTF-8" standalone="no"?>
<!-- Created with Inkscape (http://www.inkscape.org/) -->

<svg
   width="512"
   height="512"
   viewBox="0 0 512 512"
   version="1.1"
   id="svg1"
   inkscape:version="1.3.2 (091e20e, 2023-11-25, custom)"
   sodipodi:docname="lugat.svg"
   xml:space="preserve"
   inkscape:export-filename="lugat.png"
   inkscape:export-xdpi="96"
   inkscape:export-ydpi="96"
   xmlns:inkscape="http://www.inkscape.org/namespaces/inkscape"
   xmlns:sodipodi="http://sodipodi.sourceforge.net/DTD/sodipodi-0.dtd"
   xmlns="http://www.w3.org/2000/svg"
   xmlns:svg="http://www.w3.org/2000/svg"><sodipodi:namedview
     id="namedview1"
     pagecolor="#41b6e6"
     bordercolor="#000000"
     borderopacity="0.25"
     inkscape:showpageshadow="2"
     inkscape:pageopacity="0.0"
     inkscape:pagecheckerboard="true"
     inkscape:deskcolor="#d1d1d1"
     inkscape:document-units="px"
     inkscape:zoom="0.72167969"
     inkscape:cx="33.255751"
     inkscape:cy="230.71177"
     inkscape:window-width="1920"
     inkscape:window-height="974"
     inkscape:window-x="-11"
     inkscape:window-y="-11"
     inkscape:window-maximized="1"
     inkscape:current-layer="layer1"
     inkscape:export-bgcolor="#41b6e6ff" /><defs
     id="defs1" /><g
     inkscape:label="Layer 1"
     inkscape:groupmode="layer"
     id="layer1"><path
       d="m 126.58612,161.19732 c 0,0.18155 -0.0202,0.20172 -0.20172,0.20172 -0.18155,0 -0.20172,0.0202 -0.20172,0.20172 0,0.18155 -0.0202,0.20172 -0.20172,0.20172 h -0.20172 v 55.10332 55.10331 H 107.65801 89.536786 v 0.20171 c 0,0.18156 -0.02017,0.20173 -0.201721,0.20173 -0.181548,0 -0.20172,0.0202 -0.20172,0.20171 0,0.18156 -0.02017,0.20173 -0.201721,0.20173 h -0.20172 v 18.12121 18.12123 h 0.20172 c 0.181549,0 0.201721,0.0202 0.201721,0.20172 0,0.18155 0.02017,0.20172 0.20172,0.20172 0.181549,0 0.201721,0.0202 0.201721,0.20172 v 0.20172 h 36.645894 36.64588 v -0.20172 c 0,-0.18154 0.0202,-0.20172 0.20173,-0.20172 0.18154,0 0.20171,-0.0202 0.20171,-0.20172 0,-0.18155 0.0202,-0.20172 0.20173,-0.20172 h 0.20171 v -55.10331 -55.10331 h 36.54503 36.54503 v 55.06969 55.06969 h -18.08761 -18.0876 v 0.20172 c 0,0.18155 -0.0202,0.20172 -0.20172,0.20172 -0.18155,0 -0.20172,0.0202 -0.20172,0.20172 0,0.18155 -0.0202,0.20173 -0.20172,0.20173 h -0.20172 v 18.12122 18.12122 h 0.20172 c 0.18155,0 0.20172,0.0202 0.20172,0.20172 0,0.18155 0.0202,0.20172 0.20172,0.20172 0.18155,0 0.20172,0.0202 0.20172,0.20172 v 0.20172 h 55.13693 55.13694 v -0.20172 c 0,-0.18155 0.0202,-0.20172 0.20171,-0.20172 0.18155,0 0.20173,-0.0202 0.20173,-0.20172 0,-0.18155 0.0202,-0.20172 0.20171,-0.20172 h 0.20173 V 327.9193 309.79808 h -0.20173 c -0.18154,0 -0.20171,-0.0202 -0.20171,-0.20173 0,-0.18154 -0.0202,-0.20172 -0.20173,-0.20172 -0.18154,0 -0.20171,-0.0202 -0.20171,-0.20172 v -0.20172 H 292.70293 274.5817 V 253.9215 198.85181 h 36.57865 36.57865 v 55.10331 55.10331 h 0.20172 c 0.18154,0 0.20172,0.0202 0.20172,0.20172 0,0.18155 0.0202,0.20172 0.20172,0.20172 0.18155,0 0.20172,0.0202 0.20172,0.20172 v 0.20172 h 36.61227 36.61227 v -0.20172 c 0,-0.18154 0.0202,-0.20172 0.20171,-0.20172 0.18155,0 0.20173,-0.0202 0.20173,-0.20172 0,-0.18155 0.0202,-0.20172 0.20171,-0.20172 h 0.20173 V 290.9372 272.81599 h -0.20173 c -0.18154,0 -0.20171,-0.0202 -0.20171,-0.20173 0,-0.18154 -0.0202,-0.20171 -0.20173,-0.20171 -0.18154,0 -0.20171,-0.0202 -0.20171,-0.20173 v -0.20171 h -18.08761 -18.0876 V 216.9058 161.80248 h -0.20172 c -0.18156,0 -0.20172,-0.0202 -0.20172,-0.20172 0,-0.18155 -0.0202,-0.20172 -0.20172,-0.20172 -0.18156,0 -0.20172,-0.0202 -0.20172,-0.20172 V 160.9956 H 255.68722 126.58612 Z"
       id="path1"
       style="stroke-width:0.06724;fill:#ffffff" /></g></svg>
