<?xml version="1.0" encoding="UTF-8" standalone="no"?>
<!-- Created with Inkscape (http://www.inkscape.org/) -->

<svg
   width="1920"
   height="1080"
   viewBox="0 0 1920 1080"
   version="1.1"
   id="svg1"
   inkscape:version="1.3.2 (091e20e, 2023-11-25, custom)"
   sodipodi:docname="lugat-amazon-tv-icon.svg"
   xml:space="preserve"
   inkscape:export-filename="lugat-amazon-tv-icon.png"
   inkscape:export-xdpi="96"
   inkscape:export-ydpi="96"
   xmlns:inkscape="http://www.inkscape.org/namespaces/inkscape"
   xmlns:sodipodi="http://sodipodi.sourceforge.net/DTD/sodipodi-0.dtd"
   xmlns="http://www.w3.org/2000/svg"
   xmlns:svg="http://www.w3.org/2000/svg"><sodipodi:namedview
     id="namedview1"
     pagecolor="#41b6e6"
     bordercolor="#000000"
     borderopacity="0.25"
     inkscape:showpageshadow="2"
     inkscape:pageopacity="0.0"
     inkscape:pagecheckerboard="0"
     inkscape:deskcolor="#d1d1d1"
     inkscape:document-units="px"
     inkscape:zoom="0.33125"
     inkscape:cx="1162.2642"
     inkscape:cy="502.64151"
     inkscape:window-width="1920"
     inkscape:window-height="974"
     inkscape:window-x="-11"
     inkscape:window-y="-11"
     inkscape:window-maximized="1"
     inkscape:current-layer="layer1"
     inkscape:export-bgcolor="#41b6e6ff" /><defs
     id="defs1" /><g
     inkscape:label="Layer 1"
     inkscape:groupmode="layer"
     id="layer1"><path
       d="m 565.46679,256.18357 c 0,0.55495 -0.0616,0.61662 -0.61662,0.61662 -0.55496,0 -0.61662,0.0616 -0.61662,0.61661 0,0.55496 -0.0616,0.61663 -0.61662,0.61663 h -0.61662 V 426.47311 594.9128 h -55.39293 -55.39292 v 0.61661 c 0,0.55496 -0.0616,0.61662 -0.61661,0.61662 -0.55496,0 -0.61663,0.0616 -0.61663,0.61662 0,0.55496 -0.0616,0.61662 -0.61661,0.61662 h -0.61663 v 55.39291 55.39292 h 0.61663 c 0.55496,0 0.61661,0.0616 0.61661,0.61662 0,0.55496 0.0616,0.61661 0.61663,0.61661 0.55495,0 0.61661,0.0616 0.61661,0.61663 v 0.61661 h 112.01909 112.01907 v -0.61661 c 0,-0.55496 0.0616,-0.61663 0.61661,-0.61663 0.55496,0 0.61662,-0.0616 0.61662,-0.61661 0,-0.55496 0.0616,-0.61662 0.61662,-0.61662 h 0.61662 V 539.72542 371.28573 h 111.71076 111.71076 v 168.33691 168.33692 h -55.29015 -55.29015 v 0.61662 c 0,0.55496 -0.0616,0.61662 -0.61662,0.61662 -0.55496,0 -0.61661,0.0616 -0.61661,0.61662 0,0.55496 -0.0616,0.61662 -0.61663,0.61662 h -0.61661 v 55.39291 55.39292 h 0.61661 c 0.55496,0 0.61663,0.0616 0.61663,0.61663 0,0.55495 0.0616,0.61661 0.61661,0.61661 0.55496,0 0.61662,0.0616 0.61662,0.61662 v 0.61662 h 168.54246 168.54253 v -0.61662 c 0,-0.55495 0.062,-0.61662 0.6165,-0.61662 0.555,0 0.6167,-0.0616 0.6167,-0.61661 0,-0.55496 0.062,-0.61663 0.6166,-0.61663 h 0.6166 v -55.39292 -55.39291 h -0.6166 c -0.555,0 -0.6166,-0.0616 -0.6166,-0.61662 0,-0.55495 -0.062,-0.61662 -0.6167,-0.61662 -0.5549,0 -0.6165,-0.0616 -0.6165,-0.61662 v -0.61662 h -55.393 -55.3929 V 539.62264 371.28573 h 111.8136 111.8134 V 539.72542 708.1651 h 0.6167 c 0.5549,0 0.6166,0.0616 0.6166,0.61662 0,0.55496 0.062,0.61661 0.6166,0.61661 0.555,0 0.6166,0.0616 0.6166,0.61663 v 0.61661 h 111.9163 111.9164 v -0.61661 c 0,-0.55496 0.062,-0.61663 0.6165,-0.61663 0.5551,0 0.6167,-0.0616 0.6167,-0.61661 0,-0.55496 0.062,-0.61662 0.6166,-0.61662 h 0.6166 v -55.39292 -55.39291 h -0.6166 c -0.555,0 -0.6166,-0.0616 -0.6166,-0.61662 0,-0.55496 -0.062,-0.61662 -0.6167,-0.61662 -0.5549,0 -0.6165,-0.0616 -0.6165,-0.61662 v -0.61661 h -55.2902 -55.2902 V 426.47311 258.03343 h -0.6166 c -0.555,0 -0.6166,-0.0616 -0.6166,-0.61663 0,-0.55495 -0.062,-0.61661 -0.6166,-0.61661 -0.555,0 -0.6166,-0.0616 -0.6166,-0.61662 v -0.61662 H 960.10277 565.46679 Z"
       id="path1"
       style="fill:#ffffff;stroke-width:0.205539" /></g></svg>
